<svg width="49" height="40" viewBox="0 0 49 40" fill="none" xmlns="http://www.w3.org/2000/svg">
<g id="Frame" clip-path="url(#clip0_337_2328)">
<g id="Group">
<g id="Group_2">
<g id="Group_3">
<g id="Group_4">
<path id="Vector" d="M28.3365 14.5698L31.5487 22.1415L34.761 14.5698H37.5908V25.5067H35.4111V18.3174L32.3136 25.545H30.8222L27.7247 18.3174V25.545H25.5449V14.5698H28.3365Z" fill="white"/>
</g>
</g>
</g>
<g id="Group_5">
<g id="Group_6">
<path id="Vector_2" d="M37.5908 40H48.5277V0H37.5908V3.3652H45.1243V36.6348H37.5908V40Z" fill="white"/>
</g>
</g>
<g id="Group_7">
<g id="Group_8">
<g id="Group_9">
<path id="Vector_3" d="M22.9829 14.5698V25.5067H20.8032V18.3174L17.7057 25.545H16.2143L13.1167 18.3174V25.545H10.937V14.5698H13.7668L16.9791 22.1415L20.1913 14.5698H22.9829Z" fill="white"/>
</g>
</g>
</g>
<g id="Group_10">
<g id="Group_11">
<path id="Vector_4" d="M10.9369 40H0V0H10.9369V3.3652H3.3652V36.6348H10.9369V40Z" fill="white"/>
</g>
</g>
</g>
</g>
<defs>
<clipPath id="clip0_337_2328">
<rect width="48.5277" height="40" fill="white"/>
</clipPath>
</defs>
</svg>
