<svg width="127" height="30" viewBox="0 0 127 30" fill="none" xmlns="http://www.w3.org/2000/svg">
<path d="M19.7217 10.4797V20.211H17.7639V13.7907L15.0288 20.211H13.7044L10.9405 13.7907V20.211H8.98273V10.4797H11.5163L14.3954 17.188L17.2457 10.4797H19.7217Z" fill="white"/>
<path d="M28.071 17.2456H22.3704C22.6008 18.1669 23.3493 18.7427 24.3282 18.7427C25.0768 18.7427 25.7102 18.426 26.0269 17.9653H28.0134C27.4664 19.4049 26.0557 20.3838 24.2994 20.3838C22.0825 20.3838 20.4127 18.7715 20.4127 16.6122C20.4127 14.4529 22.0825 12.8406 24.2706 12.8406C26.4587 12.8406 28.1286 14.4529 28.1286 16.6122C28.1286 16.8137 28.0998 17.0728 28.071 17.2456ZM22.3992 15.8924H26.1708C25.9405 15.0287 25.1919 14.4529 24.2706 14.4529C23.3493 14.4529 22.6296 15.0287 22.3992 15.8924Z" fill="white"/>
<path d="M28.5029 18.0517H30.3455C30.3455 18.5124 30.8061 18.8579 31.382 18.8579C31.8426 18.8579 32.3033 18.5987 32.3033 18.1957C32.3033 17.7926 31.8426 17.5047 30.9213 17.3031C29.3954 16.9864 28.5893 16.2091 28.5893 15.0863C28.5893 13.6467 29.8561 12.8406 31.2668 12.8406C32.8503 12.8406 34.0019 13.8195 34.0019 15.0575H32.1593C32.1593 14.6832 31.785 14.3665 31.2668 14.3665C30.8061 14.3665 30.4319 14.6256 30.4319 14.9999C30.4319 15.3742 30.8637 15.6621 31.8426 15.8636C33.3973 16.2091 34.1459 16.9289 34.1459 18.0517C34.1459 19.5488 32.8503 20.3838 31.3532 20.3838C29.6833 20.355 28.5029 19.3185 28.5029 18.0517Z" fill="white"/>
<path d="M34.549 18.0517H36.3916C36.3916 18.5124 36.8522 18.8579 37.428 18.8579C37.8887 18.8579 38.3493 18.5987 38.3493 18.1957C38.3493 17.7926 37.8887 17.5047 36.9674 17.3031C35.4415 16.9864 34.6353 16.2091 34.6353 15.0863C34.6353 13.6467 35.9021 12.8406 37.3129 12.8406C38.8964 12.8406 40.048 13.8195 40.048 15.0575H38.2054C38.2054 14.6832 37.8311 14.3665 37.3129 14.3665C36.8522 14.3665 36.4779 14.6256 36.4779 14.9999C36.4779 15.3742 36.9098 15.6621 37.8887 15.8636C39.4434 16.2091 40.1919 16.9289 40.1919 18.0517C40.1919 19.5488 38.8964 20.3838 37.3992 20.3838C35.7294 20.355 34.549 19.3185 34.549 18.0517Z" fill="white"/>
<path d="M49.0595 18.426V20.211H48.5413C47.5336 20.211 46.8714 19.8367 46.6123 19.0882C46.0365 19.8943 45.2015 20.3838 44.1363 20.3838C42.1497 20.3838 40.6238 18.7715 40.6238 16.6122C40.6238 14.4529 42.1209 12.8406 44.1363 12.8406C45.1152 12.8406 45.9213 13.2724 46.4683 13.9634V13.0133H48.3109V17.8214C48.3109 18.1957 48.5125 18.426 48.9156 18.426H49.0595ZM46.4683 16.6122C46.4683 15.4893 45.6334 14.6256 44.4818 14.6256C43.3589 14.6256 42.524 15.4893 42.524 16.6122C42.524 17.735 43.3589 18.5987 44.4818 18.5987C45.6334 18.5987 46.4683 17.735 46.4683 16.6122Z" fill="white"/>
<path d="M56.6891 13.0133V19.4337C56.6891 21.6218 55.2207 23.0613 53.0038 23.0613C51.19 23.0613 49.8944 22.1112 49.4338 20.5853H51.334C51.6219 21.0748 52.2553 21.3915 53.0038 21.3915C54.1267 21.3915 54.8752 20.6141 54.8752 19.4337V19.117C54.2994 19.7792 53.5221 20.1822 52.5432 20.1822C50.5566 20.1822 49.0307 18.5988 49.0307 16.5258C49.0307 14.4529 50.5278 12.8694 52.5432 12.8694C53.4933 12.8694 54.2994 13.2725 54.8752 13.9346V13.0421H56.6891V13.0133ZM54.8752 16.497C54.8752 15.3742 54.0403 14.5105 52.9175 14.5105C51.7946 14.5105 50.9597 15.3742 50.9597 16.497C50.9597 17.6487 51.7946 18.4836 52.9175 18.4836C54.0403 18.4836 54.8752 17.6487 54.8752 16.497Z" fill="white"/>
<path d="M64.8944 17.2456H59.1939C59.4242 18.1669 60.1727 18.7427 61.1516 18.7427C61.9002 18.7427 62.5336 18.426 62.8503 17.9653H64.8369C64.2898 19.4049 62.8791 20.3838 61.1228 20.3838C58.9059 20.3838 57.2361 18.7715 57.2361 16.6122C57.2361 14.4529 58.9059 12.8406 61.094 12.8406C63.2821 12.8406 64.952 14.4529 64.952 16.6122C64.952 16.8137 64.9232 17.0728 64.8944 17.2456ZM59.2226 15.8924H62.9942C62.7639 15.0287 62.0154 14.4529 61.094 14.4529C60.1727 14.4529 59.453 15.0287 59.2226 15.8924Z" fill="white"/>
<path d="M76.3244 10.4797V20.211H74.3666V13.7907L71.6315 20.211H70.3071L67.572 13.7907V20.211H65.6142V10.4797H68.1478L70.9981 17.188L73.8484 10.4797H76.3244Z" fill="white"/>
<path d="M76.9866 16.6122C76.9866 14.4817 78.6564 12.8406 80.8445 12.8406C83.0326 12.8406 84.7025 14.4529 84.7025 16.6122C84.7025 18.7715 83.0326 20.3838 80.8445 20.3838C78.6564 20.355 76.9866 18.7427 76.9866 16.6122ZM82.8311 16.6122C82.8311 15.4893 81.9962 14.6256 80.8733 14.6256C79.7505 14.6256 78.9156 15.4893 78.9156 16.6122C78.9156 17.735 79.7505 18.5987 80.8733 18.5987C81.9962 18.5987 82.8311 17.735 82.8311 16.6122Z" fill="white"/>
<path d="M97.3705 18.426V20.211H96.8522C95.4991 20.211 94.7793 19.5488 94.7793 18.2245V16.0939C94.7793 15.2302 94.2323 14.6544 93.3685 14.6544C92.476 14.6544 91.8714 15.259 91.8714 16.1227V20.211H90.0288V16.0651C90.0288 15.2014 89.453 14.6256 88.6181 14.6256C87.7255 14.6256 87.0922 15.2302 87.0922 16.0939V20.1822H85.2495V13.0133H87.0922V13.8483C87.6104 13.1861 88.3589 12.8406 89.2227 12.8406C90.2879 12.8406 91.1229 13.33 91.5259 14.1362C92.073 13.3012 92.9079 12.8406 93.9731 12.8406C95.5566 12.8406 96.5931 13.9058 96.5931 15.5181V17.8214C96.5931 18.1957 96.8234 18.426 97.1977 18.426H97.3705Z" fill="white"/>
<path d="M105.173 17.2456H99.4722C99.7025 18.1669 100.451 18.7427 101.43 18.7427C102.179 18.7427 102.812 18.426 103.129 17.9653H105.115C104.568 19.4049 103.157 20.3838 101.401 20.3838C99.1843 20.3838 97.5144 18.7715 97.5144 16.6122C97.5144 14.4529 99.1843 12.8406 101.372 12.8406C103.56 12.8406 105.23 14.4529 105.23 16.6122C105.23 16.8137 105.202 17.0728 105.173 17.2456ZM99.501 15.8924H103.273C103.042 15.0287 102.294 14.4529 101.372 14.4529C100.451 14.4529 99.7313 15.0287 99.501 15.8924Z" fill="white"/>
<path d="M113.436 18.426V20.211H112.917C111.564 20.211 110.845 19.5488 110.845 18.2245V16.2379C110.845 15.259 110.211 14.6256 109.29 14.6256C108.282 14.6256 107.591 15.259 107.591 16.2667V20.211H105.749V13.0133H107.591V13.9058C108.138 13.2149 108.916 12.8406 109.866 12.8406C111.564 12.8406 112.658 13.9346 112.658 15.6333V17.8214C112.658 18.1957 112.889 18.426 113.263 18.426H113.436Z" fill="white"/>
<path d="M116.084 14.6833V17.62C116.084 18.1958 116.43 18.5125 117.035 18.5125H117.754V20.1824H116.775C115.134 20.1824 114.271 19.405 114.271 17.9079V14.6833H113.119V13.0135H113.781C114.155 13.0135 114.357 12.8119 114.357 12.4377V11.1133H116.084V13.0423H117.754V14.6833H116.084Z" fill="white"/>
<path d="M9.6737 30H0V0H9.6737V2.59117H2.59117V27.4088H9.6737V30Z" fill="white"/>
<path d="M126.737 30H117.035V27.4088H124.146V2.59117H117.035V0H126.737V30Z" fill="white"/>
</svg>
