<svg width="169" height="40" viewBox="0 0 169 40" fill="none" xmlns="http://www.w3.org/2000/svg">
<path d="M26.2952 13.9739V26.9489H23.6848V18.3885L20.038 26.9489H18.2721L14.5869 18.3885V26.9489H11.9766V13.9739H15.3547L19.1935 22.9182L22.9938 13.9739H26.2952Z" fill="white"/>
<path d="M37.4273 22.9932H29.8265C30.1336 24.2216 31.1317 24.9894 32.4369 24.9894C33.435 24.9894 34.2795 24.5671 34.7018 23.9529H37.3505C36.6211 25.8723 34.7401 27.1775 32.3985 27.1775C29.4426 27.1775 27.2162 25.0277 27.2162 22.1487C27.2162 19.2696 29.4426 17.1199 32.3601 17.1199C35.2776 17.1199 37.5041 19.2696 37.5041 22.1487C37.5041 22.4174 37.4657 22.7629 37.4273 22.9932ZM29.8649 21.189H34.8937C34.5866 20.0373 33.5885 19.2696 32.3601 19.2696C31.1317 19.2696 30.172 20.0373 29.8649 21.189Z" fill="white"/>
<path d="M38.0026 24.0681H40.4594C40.4594 24.6823 41.0736 25.1429 41.8414 25.1429C42.4556 25.1429 43.0698 24.7974 43.0698 24.26C43.0698 23.7226 42.4556 23.3387 41.2272 23.07C39.1926 22.6477 38.1178 21.6112 38.1178 20.1141C38.1178 18.1947 39.8068 17.1199 41.6878 17.1199C43.7991 17.1199 45.3346 18.4251 45.3346 20.0757H42.8778C42.8778 19.5767 42.3788 19.1544 41.6878 19.1544C41.0736 19.1544 40.5746 19.4999 40.5746 19.999C40.5746 20.498 41.1504 20.8819 42.4556 21.1506C44.5285 21.6112 45.5266 22.5709 45.5266 24.0681C45.5266 26.0642 43.7991 27.1775 41.803 27.1775C39.5765 27.1391 38.0026 25.7571 38.0026 24.0681Z" fill="white"/>
<path d="M46.0651 24.0681H48.5219C48.5219 24.6823 49.1361 25.1429 49.9039 25.1429C50.5181 25.1429 51.1323 24.7974 51.1323 24.26C51.1323 23.7226 50.5181 23.3387 49.2897 23.07C47.2551 22.6477 46.1803 21.6112 46.1803 20.1141C46.1803 18.1947 47.8693 17.1199 49.7503 17.1199C51.8616 17.1199 53.3972 18.4251 53.3972 20.0757H50.9403C50.9403 19.5767 50.4413 19.1544 49.7503 19.1544C49.1361 19.1544 48.6371 19.4999 48.6371 19.999C48.6371 20.498 49.2129 20.8819 50.5181 21.1506C52.591 21.6112 53.5891 22.5709 53.5891 24.0681C53.5891 26.0642 51.8616 27.1775 49.8655 27.1775C47.639 27.1391 46.0651 25.7571 46.0651 24.0681Z" fill="white"/>
<path d="M65.4117 24.5671V26.9471H64.7207C63.3771 26.9471 62.4942 26.4481 62.1487 25.45C61.3809 26.5249 60.2677 27.1775 58.8474 27.1775C56.1986 27.1775 54.1641 25.0277 54.1641 22.1487C54.1641 19.2696 56.1602 17.1199 58.8474 17.1199C60.1525 17.1199 61.2274 17.6957 61.9568 18.617V17.3502H64.4136V23.7609C64.4136 24.26 64.6823 24.5671 65.2197 24.5671H65.4117ZM61.9568 22.1487C61.9568 20.6515 60.8435 19.4999 59.308 19.4999C57.8109 19.4999 56.6976 20.6515 56.6976 22.1487C56.6976 23.6458 57.8109 24.7974 59.308 24.7974C60.8435 24.7974 61.9568 23.6458 61.9568 22.1487Z" fill="white"/>
<path d="M75.5861 17.3533V25.9138C75.5861 28.8312 73.6284 30.7506 70.6725 30.7506C68.2541 30.7506 66.5266 29.4838 65.9124 27.4493H68.446C68.8299 28.1019 69.6744 28.5241 70.6725 28.5241C72.1696 28.5241 73.1677 27.4877 73.1677 25.9138V25.4915C72.4 26.3744 71.3635 26.9119 70.0583 26.9119C67.4095 26.9119 65.375 24.8005 65.375 22.0366C65.375 19.2727 67.3712 17.1614 70.0583 17.1614C71.3251 17.1614 72.4 17.6988 73.1677 18.5817V17.3917H75.5861V17.3533ZM73.1677 21.9982C73.1677 20.5011 72.0545 19.3495 70.5573 19.3495C69.0602 19.3495 67.947 20.5011 67.947 21.9982C67.947 23.5337 69.0602 24.647 70.5573 24.647C72.0545 24.647 73.1677 23.5337 73.1677 21.9982Z" fill="white"/>
<path d="M86.5262 22.9932H78.9255C79.2326 24.2216 80.2306 24.9894 81.5358 24.9894C82.5339 24.9894 83.3784 24.5671 83.8007 23.9529H86.4494C85.7201 25.8723 83.8391 27.1775 81.4974 27.1775C78.5416 27.1775 76.3151 25.0277 76.3151 22.1487C76.3151 19.2696 78.5416 17.1199 81.459 17.1199C84.3765 17.1199 86.603 19.2696 86.603 22.1487C86.603 22.4174 86.5646 22.7629 86.5262 22.9932ZM78.9638 21.189H83.9926C83.6855 20.0373 82.6875 19.2696 81.459 19.2696C80.2306 19.2696 79.2709 20.0373 78.9638 21.189Z" fill="white"/>
<path d="M101.765 13.9739V26.9489H99.1542V18.3885L95.5074 26.9489H93.7416L90.0947 18.3885V26.9489H87.4844V13.9739H90.8625L94.6629 22.9182L98.4633 13.9739H101.765Z" fill="white"/>
<path d="M102.648 22.1487C102.648 19.308 104.875 17.1199 107.792 17.1199C110.71 17.1199 112.936 19.2696 112.936 22.1487C112.936 25.0277 110.71 27.1775 107.792 27.1775C104.875 27.1391 102.648 24.9894 102.648 22.1487ZM110.441 22.1487C110.441 20.6515 109.328 19.4999 107.831 19.4999C106.334 19.4999 105.22 20.6515 105.22 22.1487C105.22 23.6458 106.334 24.7974 107.831 24.7974C109.328 24.7974 110.441 23.6458 110.441 22.1487Z" fill="white"/>
<path d="M129.828 24.5671V26.9471H129.137C127.333 26.9471 126.373 26.0642 126.373 24.2984V21.4577C126.373 20.3061 125.644 19.5383 124.492 19.5383C123.302 19.5383 122.496 20.3444 122.496 21.4961V26.9471H120.039V21.4193C120.039 20.2677 119.271 19.4999 118.158 19.4999C116.968 19.4999 116.123 20.3061 116.123 21.4577V26.9087H113.667V17.3502H116.123V18.4634C116.814 17.5805 117.813 17.1199 118.964 17.1199C120.385 17.1199 121.498 17.7725 122.035 18.8473C122.765 17.7341 123.878 17.1199 125.298 17.1199C127.409 17.1199 128.791 18.5402 128.791 20.6899V23.7609C128.791 24.26 129.099 24.5671 129.598 24.5671H129.828Z" fill="white"/>
<path d="M140.229 22.9932H132.629C132.936 24.2216 133.934 24.9894 135.239 24.9894C136.237 24.9894 137.082 24.5671 137.504 23.9529H140.153C139.423 25.8723 137.542 27.1775 135.201 27.1775C132.245 27.1775 130.018 25.0277 130.018 22.1487C130.018 19.2696 132.245 17.1199 135.162 17.1199C138.08 17.1199 140.306 19.2696 140.306 22.1487C140.306 22.4174 140.268 22.7629 140.229 22.9932ZM132.667 21.189H137.696C137.389 20.0373 136.391 19.2696 135.162 19.2696C133.934 19.2696 132.974 20.0373 132.667 21.189Z" fill="white"/>
<path d="M151.247 24.5671V26.9471H150.556C148.752 26.9471 147.792 26.0642 147.792 24.2984V21.6496C147.792 20.3444 146.947 19.4999 145.719 19.4999C144.376 19.4999 143.454 20.3444 143.454 21.688V26.9471H140.997V17.3502H143.454V18.5402C144.184 17.6189 145.22 17.1199 146.487 17.1199C148.752 17.1199 150.21 18.5786 150.21 20.8435V23.7609C150.21 24.26 150.518 24.5671 151.017 24.5671H151.247Z" fill="white"/>
<path d="M154.779 19.5777V23.4933C154.779 24.261 155.24 24.6833 156.046 24.6833H157.006V26.9098H155.701C153.513 26.9098 152.361 25.8733 152.361 23.8771V19.5777H150.826V17.3512H151.708C152.207 17.3512 152.476 17.0825 152.476 16.5835V14.8176H154.779V17.3896H157.006V19.5777H154.779Z" fill="white"/>
<path d="M12.8983 40H0V0H12.8983V3.45489H3.4549V36.5451H12.8983V40Z" fill="white"/>
<path d="M168.984 40H156.047V36.5451H165.529V3.45489H156.047V0H168.984V40Z" fill="white"/>
</svg>
