<svg width="25" height="21" viewBox="0 0 25 21" fill="none" xmlns="http://www.w3.org/2000/svg">
<path d="M13.59 0.59C13.21 0.21 12.7 0 12.17 0H7C5.9 0 5.01 0.9 5.01 2L5 14C5 15.1 5.9 16 7 16H23C24.1 16 25 15.1 25 14V4C25 2.9 24.1 2 23 2H15L13.59 0.59Z" fill="#494AF8"/>
<circle cx="7" cy="14" r="7" fill="#EDEDFE"/>
<circle cx="7" cy="14" r="5" fill="#494AF8"/>
<path fill-rule="evenodd" clip-rule="evenodd" d="M9.1093 13.0924C9.16841 13.1515 9.20162 13.2317 9.20162 13.3153C9.20162 13.3989 9.16841 13.4791 9.1093 13.5382L6.74608 15.9015C6.71485 15.9327 6.67777 15.9575 6.63696 15.9744C6.59615 15.9913 6.55241 16 6.50824 16C6.46407 16 6.42033 15.9913 6.37952 15.9744C6.33872 15.9575 6.30164 15.9327 6.27041 15.9015L5.09626 14.7275C5.06614 14.6984 5.04212 14.6637 5.0256 14.6252C5.00907 14.5867 5.00038 14.5453 5.00001 14.5035C4.99965 14.4616 5.00763 14.4201 5.02348 14.3814C5.03933 14.3426 5.06274 14.3074 5.09235 14.2778C5.12195 14.2482 5.15715 14.2248 5.1959 14.2089C5.23465 14.1931 5.27617 14.1851 5.31803 14.1855C5.3599 14.1858 5.40127 14.1945 5.43974 14.211C5.4782 14.2276 5.51299 14.2516 5.54208 14.2817L6.50814 15.2478L8.66327 13.0924C8.69255 13.0631 8.72732 13.0399 8.76558 13.024C8.80385 13.0082 8.84487 13 8.88629 13C8.92771 13 8.96873 13.0082 9.00699 13.024C9.04526 13.0399 9.08002 13.0631 9.1093 13.0924Z" fill="#EDEDFE" stroke="#EDEDFE" stroke-width="0.7"/>
</svg>
