<svg width="49" height="34" viewBox="0 0 49 34" fill="none" xmlns="http://www.w3.org/2000/svg">
<circle opacity="0.1" cx="32" cy="17" r="17" fill="#4DB5FF"/>
<path d="M30.7971 6.79693C28.5656 6.79693 26.5831 8.23382 25.8921 10.3546C25.1829 10.5008 24.513 10.7964 23.927 11.2216C23.3409 11.6468 22.8522 12.192 22.4932 12.8209C21.3741 14.7551 21.6296 17.1868 23.1289 18.8448C22.666 20.2334 22.8249 21.7531 23.5641 23.0105C24.6765 24.9517 26.9145 25.9465 29.1046 25.4836C29.5841 26.0248 30.1735 26.4575 30.8335 26.7529C31.4934 27.0484 32.2088 27.1997 32.9318 27.1968C35.1633 27.1968 37.1458 25.7599 37.8368 23.6391C39.2737 23.342 40.5104 22.4438 41.2288 21.1729C42.3548 19.2386 42.0993 16.8069 40.6002 15.149V15.1421C40.8289 14.4557 40.9083 13.7284 40.8333 13.0088C40.7582 12.2892 40.5304 11.594 40.165 10.9695C39.0524 9.03525 36.8141 8.0402 34.6311 8.50309C34.1494 7.96331 33.5585 7.53207 32.8975 7.23793C32.2365 6.94379 31.5205 6.79347 30.7971 6.79693ZM30.7971 8.12342L30.7902 8.13028C31.6883 8.13028 32.5519 8.44116 33.2427 9.01469C33.215 9.02839 33.1597 9.06291 33.1184 9.08372L29.0564 11.4256C28.8491 11.5431 28.7247 11.7641 28.7247 12.006V17.5048L26.9769 16.4963V11.9506C26.9766 10.9367 27.3787 9.96404 28.095 9.24638C28.8112 8.52872 29.7831 8.12498 30.7971 8.12342ZM35.6903 9.72432C36.3635 9.72303 37.025 9.89946 37.6081 10.2358C38.1912 10.5721 38.6751 11.0564 39.0111 11.6398C39.4531 12.4135 39.6189 13.3185 39.4669 14.1958C39.4392 14.175 39.3841 14.1476 39.3494 14.1268L35.2874 11.7778C35.1852 11.72 35.0698 11.6897 34.9524 11.6897C34.835 11.6897 34.7196 11.72 34.6174 11.7778L29.8576 14.5272V12.51L33.7883 10.2371C34.3663 9.90208 35.0223 9.72512 35.6903 9.72407V9.72432ZM25.6436 11.8123V16.6412C25.6436 16.8831 25.7679 17.0972 25.9753 17.2216L30.728 19.9642L28.9732 20.9795L25.0493 18.7136C24.1724 18.2054 23.5329 17.37 23.2713 16.3908C23.0097 15.4116 23.1474 14.3686 23.654 13.4908C24.1009 12.7162 24.8048 12.1225 25.6436 11.8123ZM34.7486 13.0074L38.6794 15.2734C40.5101 16.3303 41.1316 18.6653 40.0747 20.4961L40.0815 20.5029C39.6326 21.2767 38.9278 21.8708 38.0919 22.1748V17.3457C38.0919 17.1039 37.9675 16.8828 37.7602 16.7656L33.0006 14.0159L34.7486 13.0074ZM31.8609 14.6724L33.8645 15.8329V18.1471L31.8609 19.3077L29.8576 18.1471V15.8329L31.8609 14.6724ZM35.011 16.4963L36.7588 17.5048V22.0436C36.7588 24.1576 35.0455 25.8708 32.9387 25.8708V25.864C32.0474 25.864 31.177 25.5531 30.493 24.9798C30.5207 24.9661 30.5829 24.9314 30.6174 24.9105L34.6794 22.5687C34.8867 22.4512 35.0179 22.2301 35.0108 21.9883L35.011 16.4963ZM33.8711 19.4668V21.4838L29.9403 23.7498C28.1096 24.7999 25.7746 24.1781 24.7176 22.3543H24.7244C24.2755 21.5873 24.1164 20.6755 24.2684 19.7982C24.2961 19.819 24.3514 19.8464 24.3859 19.8672L28.4479 22.2162C28.55 22.274 28.6654 22.3044 28.7828 22.3044C28.9002 22.3044 29.0156 22.274 29.1178 22.2162L33.8711 19.4668Z" fill="#4DB5FF"/>
<path d="M0 17.7851V15.5744H3.8843V12H6.13636V15.5744H10V17.7851H6.13636V21.3595H3.8843V17.7851H0Z" fill="#4DB5FF"/>
</svg>
